<?xml version="1.0" encoding="utf-8"?>
<!-- Generator: Adobe Illustrator 24.0.0, SVG Export Plug-In . SVG Version: 6.00 Build 0)  -->
<svg version="1.1" id="Capa_1" xmlns="http://www.w3.org/2000/svg" xmlns:xlink="http://www.w3.org/1999/xlink" x="0px" y="0px"
	 viewBox="0 0 50 50" style="enable-background:new 0 0 50 50;" xml:space="preserve">
<style type="text/css">
	.st0{opacity:0.5;clip-path:url(#SVGID_2_);fill:url(#SVGID_3_);}
	.st1{fill:#69B7D3;}
	.st2{clip-path:url(#SVGID_5_);}
	.st3{fill:#FDBA17;}
	.st4{fill:#564E47;}
	.st5{fill:#2DCD5A;}
	.st6{fill:#5D91C8;}
	.st7{fill:#5F92C7;}
	.st8{fill:#BCE8E9;}
	.st9{fill:#21BE4A;}
	.st10{fill:#18AA3D;}
	.st11{fill:#3D72A2;}
	.st12{fill:#FB9221;}
	.st13{fill:#6092C6;}
	.st14{fill:#F6403E;}
	.st15{fill:#DDF2F2;}
</style>
<g>
	<defs>
		<polygon id="SVGID_1_" points="3.67,46.79 2.97,47.47 1.25,49.67 50,49.67 47.67,46.72 		"/>
	</defs>
	<clipPath id="SVGID_2_">
		<use xlink:href="#SVGID_1_"  style="overflow:visible;"/>
	</clipPath>
	
		<radialGradient id="SVGID_3_" cx="-9.1061" cy="48.587" r="43.2023" gradientTransform="matrix(1.1778 0 0 1 1.0667 0)" gradientUnits="userSpaceOnUse">
		<stop  offset="0" style="stop-color:#000000;stop-opacity:0"/>
		<stop  offset="0.2254" style="stop-color:#242424"/>
		<stop  offset="0.4757" style="stop-color:#1F1F1F;stop-opacity:0.6769"/>
		<stop  offset="0.7646" style="stop-color:#111111;stop-opacity:0.3039"/>
		<stop  offset="1" style="stop-color:#000000;stop-opacity:0"/>
	</radialGradient>
	<path class="st0" d="M47.88,48.67c0,0.59-12.59,1.06-28.12,1.06s-28.12-0.48-28.12-1.06c0-0.59,8.37-1.85,28.12-1.06
		C35.27,48.23,47.88,48.09,47.88,48.67z"/>
</g>
<path class="st1" d="M7.81,43.38L1.45,49.5V4.23c0-0.79,0.65-1.43,1.44-1.43H46.7c0.8,0,1.44,0.64,1.44,1.43v37.72
	c0,0.79-0.65,1.43-1.44,1.43H7.81z"/>
<g>
	<defs>
		<path id="SVGID_4_" d="M7.81,43.38L1.45,49.5V4.23c0-0.79,0.65-1.43,1.44-1.43L25,0l21.7,2.8c0.8,0,1.44,0.64,1.44,1.43v37.72
			c0,0.79-0.65,1.43-1.44,1.43H7.81z"/>
	</defs>
	<clipPath id="SVGID_5_">
		<use xlink:href="#SVGID_4_"  style="overflow:visible;"/>
	</clipPath>
	<g class="st2">
		<polyline class="st3" points="5.81,14.29 44.03,14.29 44.03,36.7 5.81,36.7 		"/>
		<polyline class="st3" points="5.81,14.29 5.81,36.67 10.87,36.67 		"/>
		<g>
			<path class="st4" d="M38.16,45.43c-2.97,1.05-6.04,1.66-9.18,1.98c-0.22,0.02-0.49-0.13-0.65,0.16c-2.33,0-4.66,0-7,0
				c-0.9-0.37-1.87-0.31-2.8-0.46c-2.33-0.38-4.63-0.9-6.86-1.68c0.12-0.3,0.22-0.61,0.36-0.89c1.32-2.62,2.64-5.23,3.96-7.85
				c0.14,0,0.27,0,0.41-0.01c2.4-0.01,4.8-0.01,7.2-0.02c0.87,0,1.75,0,2.62,0c2.39,0.01,4.78,0.01,7.16,0.02
				c0.15,0,0.3,0.01,0.45,0.01c1.13,2.23,2.26,4.46,3.38,6.7C37.55,44.06,37.98,44.69,38.16,45.43z"/>
			<path class="st3" d="M38.97,36.7c-0.14-0.01-0.28-0.02-0.43-0.03c0.36-1.62-0.33-2.89-1.79-3.2c-0.36-0.08-0.54-0.22-0.59-0.56
				c-0.01-0.08-0.04-0.16-0.07-0.23c0.22,0,0.44-0.01,0.65,0c1.32,0.02,2.64-0.04,3.96-0.11c0.75-0.04,1.13-0.32,1.2-0.91
				c0.24-1.88,0.24-3.77,0-5.66c-0.06-0.48-0.41-0.81-0.9-0.85c-2.8-0.21-5.6-0.21-8.4,0c-0.5,0.04-0.85,0.38-0.91,0.89
				c-0.22,1.75-0.22,3.5-0.05,5.25c0.03,0.32,0.02,0.66,0.3,0.9c-0.1,0.16-0.25,0.32-0.28,0.49c-0.1,0.64-0.53,0.81-1.08,0.86
				c-0.03-2.27-0.06-4.54-0.19-6.81c-0.05-0.93-0.45-1.38-1.39-1.48c-0.73-0.08-1.46-0.17-2.19-0.22c-2.07-0.12-4.13-0.06-6.19,0.25
				c-0.78,0.12-1.15,0.58-1.19,1.36c-0.13,2.3-0.16,4.6-0.19,6.9c-0.23-0.04-0.45-0.1-0.68-0.13c-0.13-0.01-0.2-0.06-0.22-0.19
				c-0.07-0.38-0.28-0.7-0.46-1.03c0.17-0.17,0.24-0.38,0.27-0.62c0.21-1.82,0.22-3.64,0-5.45c-0.08-0.63-0.4-0.94-1.04-0.98
				c-2.73-0.2-5.46-0.2-8.19,0c-0.59,0.04-0.93,0.35-1,0.93c-0.23,1.76-0.22,3.53-0.04,5.29c0.09,0.91,0.39,1.16,1.32,1.21
				c1.51,0.09,3.02,0.11,4.53,0.11c-0.05,0.18-0.12,0.36-0.15,0.54c-0.03,0.14-0.1,0.16-0.22,0.19c-1.7,0.31-2.51,1.59-2.07,3.27
				c-0.14,0.01-0.28,0.02-0.41,0.03 M5.81,14.29c2.89,0,5.77,0,8.66,0c0.23,0,0.41-0.04,0.58-0.21c1.48-1.47,2.97-2.92,4.45-4.38
				c1.52-1.5,3.02-3.02,4.54-4.53c0.61-0.61,1.16-0.6,1.77,0c0.15,0.15,0.31,0.31,0.46,0.46c2.83,2.81,5.67,5.61,8.49,8.42
				c0.18,0.18,0.36,0.25,0.61,0.25c2.89-0.01,5.77,0,8.66,0 M20.42,19.28c0-0.84,0.02-1.69-0.01-2.53
				c-0.02-0.76-0.49-1.18-1.24-1.24c-1.05-0.09-2.09-0.08-3.14,0c-0.71,0.06-1.18,0.46-1.22,1.18c-0.11,1.73-0.1,3.45,0,5.18
				c0.04,0.71,0.45,1.11,1.16,1.18c1.09,0.11,2.17,0.11,3.26,0c0.76-0.08,1.16-0.49,1.18-1.24C20.44,20.96,20.42,20.12,20.42,19.28z
				 M29.43,19.28c0,0.86-0.02,1.71,0.01,2.57c0.02,0.7,0.44,1.13,1.14,1.2c1.1,0.11,2.2,0.11,3.3,0c0.69-0.07,1.11-0.46,1.15-1.14
				c0.11-1.74,0.1-3.48,0-5.22c-0.04-0.71-0.51-1.11-1.22-1.17c-1.05-0.09-2.09-0.09-3.14,0c-0.75,0.06-1.22,0.49-1.24,1.24
				C29.41,17.59,29.43,18.44,29.43,19.28z M13.17,19.3c-0.01-0.87,0-1.74-0.07-2.61c-0.06-0.67-0.47-1.11-1.13-1.17
				c-1.11-0.1-2.23-0.1-3.34,0c-0.64,0.06-1.07,0.51-1.11,1.15c-0.11,1.74-0.11,3.48,0,5.22c0.04,0.67,0.45,1.1,1.13,1.16
				c1.1,0.11,2.2,0.11,3.3,0c0.71-0.07,1.1-0.48,1.15-1.18C13.16,21.01,13.16,20.15,13.17,19.3z M27.79,19.3
				c0-0.87-0.01-1.74-0.07-2.61c-0.05-0.67-0.47-1.12-1.12-1.18c-1.11-0.1-2.23-0.1-3.34,0c-0.62,0.06-1.07,0.49-1.11,1.1
				c-0.12,1.78-0.12,3.56,0,5.34c0.04,0.6,0.47,1.02,1.08,1.08c1.14,0.12,2.28,0.12,3.42,0c0.62-0.06,1.03-0.5,1.07-1.13
				C27.78,21.04,27.79,20.17,27.79,19.3z M36.67,19.28c0.01,0.88,0,1.77,0.08,2.65c0.06,0.63,0.46,1.05,1.09,1.11
				c1.11,0.11,2.23,0.11,3.34,0c0.7-0.07,1.1-0.5,1.15-1.19c0.11-1.71,0.1-3.42,0-5.14c-0.04-0.71-0.47-1.15-1.18-1.21
				c-1.07-0.09-2.14-0.09-3.22,0c-0.71,0.06-1.13,0.48-1.19,1.2C36.68,17.57,36.69,18.43,36.67,19.28z M28.69,10.3
				c0.16-2-1.4-3.85-3.35-4.01c-2.08-0.18-4.13,1.24-4.21,3.72c-0.06,1.88,1.28,3.65,3.5,3.86C26.75,14.05,28.63,12.38,28.69,10.3z"
				/>
			<path class="st5" d="M15.97,46.57c0.06-0.15,2.42-5.81,2.49-5.95c0.66-1.31,1.33-2.63,1.99-3.94c-2.02,0-4.04,0-6.06-0.01
				c-1.03,0-2.07,0-3.1,0c-0.14,0.01-9.7,0.02-9.84,0.03l-6.47,13.8"/>
			<path class="st5" d="M34.08,46.57c-0.09-0.37-2.81-6.19-2.98-6.53c-0.56-1.12-1.13-2.24-1.7-3.36c0.96,0,1.92,0,2.87-0.01
				c2.09,0,4.18,0,6.27,0c0.14,0.01,9.46,0.02,9.6,0.03l4.24,9.87"/>
			<path class="st6" d="M6.01,12.76c-0.1-0.01-0.2-0.01-0.3-0.02c-0.91-0.1-1.48-0.87-1.26-1.77C4.87,9.22,5.3,7.47,5.73,5.72
				c0.16-0.64,0.6-1,1.27-1.09C7.58,4.55,8.17,4.6,8.75,4.6c1.2-0.02,2.39-0.02,3.59-0.03c2.46,0,4.91,0.01,7.37,0.01
				c-0.28,0.28-0.55,0.56-0.83,0.84c-0.44,0.46-0.94,0.64-1.62,0.63c-3.1-0.05-6.2-0.02-9.31-0.02C7.8,6.04,7.62,6,7.49,6.13
				C7.3,6.3,7.13,6.48,7.23,6.76c0.11,0.29,0.32,0.43,0.66,0.43c2.84-0.01,5.69-0.01,8.53-0.01c0.14,0,0.28,0,0.46,0
				c-0.16,0.34-0.49,0.43-0.66,0.66c-0.2,0.26-0.46,0.32-0.78,0.32c-2.68-0.01-5.36-0.01-8.04-0.01c-0.14,0-0.27-0.01-0.41,0
				C6.65,8.19,6.47,8.38,6.46,8.72C6.45,9.07,6.64,9.28,7,9.31c0.11,0.01,0.22,0,0.33,0c2.27,0,4.54,0,6.82,0c0.14,0,0.28,0,0.46,0
				c-0.18,0.31-0.47,0.39-0.63,0.61c-0.22,0.3-0.51,0.38-0.88,0.38c-2.2-0.02-4.41-0.01-6.61-0.01c-0.37,0-0.66,0.25-0.67,0.56
				c-0.01,0.31,0.28,0.56,0.66,0.58c0.1,0,0.19,0,0.29,0c1.71,0,3.43,0,5.14,0c0.1,0,0.25-0.06,0.3,0.06
				c0.06,0.14-0.1,0.16-0.18,0.23c-0.1,0.09-0.19,0.2-0.3,0.28c-0.23,0.18-0.27,0.36-0.02,0.56c0.06,0.05,0.1,0.13,0.15,0.19
				C9.91,12.76,7.96,12.76,6.01,12.76z"/>
			<path class="st6" d="M44.13,12.75c-0.1,0.01-0.2,0.01-0.3,0.02c-1.95,0-3.9-0.01-5.85-0.01c0.04-0.06,0.07-0.12,0.12-0.16
				c0.29-0.22,0.23-0.41-0.02-0.62c-0.17-0.14-0.3-0.33-0.45-0.49c0.14-0.08,0.3-0.04,0.44-0.04c1.73,0,3.46,0,5.19,0
				c0.45,0,0.76-0.22,0.77-0.56c0.01-0.35-0.3-0.59-0.77-0.59c-2.22,0-4.44,0-6.66,0c-0.15,0-0.31,0.04-0.43-0.07
				c-0.31-0.27-0.57-0.59-0.88-0.91c0.44,0,0.89,0,1.33,0c2.03,0,4.06,0,6.08,0c0.5,0,0.75-0.26,0.67-0.69
				c-0.08-0.39-0.36-0.46-0.71-0.45c-2.7,0-5.39-0.03-8.08,0.02c-0.81,0.02-1.11-0.56-1.58-1c0.12,0,0.24,0,0.36,0
				c2.83,0,5.66,0,8.49,0c0.17,0,0.36,0.05,0.51-0.09c0.17-0.16,0.34-0.34,0.25-0.6c-0.1-0.29-0.3-0.45-0.64-0.45
				c-3.31,0.01-6.62,0.01-9.92,0c-0.17,0-0.35,0.04-0.5-0.11c-0.47-0.45-0.99-0.85-1.41-1.35c2.46,0,4.91-0.01,7.37-0.01
				c1.56,0.01,3.12,0.02,4.69,0.03c0.22,0,0.43,0.01,0.65,0.04c0.69,0.08,1.11,0.44,1.28,1.13c0.43,1.74,0.86,3.48,1.27,5.22
				C45.61,11.88,45.04,12.65,44.13,12.75z"/>
			<path class="st7" d="M19.25,33.54c0.03-2.3,0.06-4.6,0.19-6.9c0.04-0.78,0.41-1.25,1.19-1.36c2.05-0.31,4.12-0.37,6.19-0.25
				c0.73,0.04,1.46,0.14,2.19,0.22c0.94,0.1,1.34,0.55,1.39,1.48c0.12,2.27,0.16,4.54,0.19,6.81c-0.43,0.19-0.76,0.51-1.07,0.85
				c-0.01-2.51-0.07-5.03-0.18-7.54c-0.02-0.34-0.12-0.5-0.45-0.54c-0.97-0.1-1.94-0.2-2.92-0.26c-0.34-0.02-0.4,0.1-0.4,0.41
				c0.01,3.4,0.01,6.8,0.01,10.2c-0.44,0-0.88,0-1.31,0c0-1.22,0-2.45,0-3.67c0-2.18-0.01-4.36,0.01-6.53
				c0-0.32-0.08-0.44-0.41-0.41c-0.46,0.05-0.92,0.05-1.38,0.09c-0.51,0.05-1.02,0.11-1.54,0.17c-0.29,0.03-0.46,0.16-0.44,0.5
				c0.01,0.36-0.05,0.73-0.06,1.1c-0.04,1.69-0.07,3.37-0.1,5.06c-0.01,0.48-0.02,0.95-0.02,1.43
				C20.02,34.05,19.66,33.76,19.25,33.54z"/>
			<path class="st8" d="M20.32,34.4c0.01-0.48,0.02-0.95,0.02-1.43c0.03-1.69,0.06-3.37,0.1-5.06c0.01-0.37,0.07-0.73,0.06-1.1
				c-0.01-0.34,0.15-0.47,0.44-0.5c0.51-0.06,1.02-0.12,1.54-0.17c0.46-0.04,0.92-0.04,1.38-0.09c0.33-0.03,0.41,0.09,0.41,0.41
				c-0.01,2.18-0.01,4.36-0.01,6.53c0,1.22,0,2.45,0,3.67c-1.2,0-2.41,0.01-3.61,0.01C20.87,35.87,20.78,35.11,20.32,34.4z
				 M23.64,32.22c0-0.61,0-1.22,0-1.83c0-0.27-0.07-0.5-0.39-0.51c-0.34-0.01-0.44,0.21-0.44,0.51c0,1.21,0,2.42,0,3.62
				c0,0.3,0.1,0.52,0.43,0.53c0.35,0.01,0.41-0.24,0.41-0.53C23.64,33.42,23.64,32.82,23.64,32.22z"/>
			<path class="st8" d="M25.58,36.67c0-3.4,0-6.8-0.01-10.2c0-0.31,0.06-0.43,0.4-0.41c0.98,0.06,1.95,0.15,2.92,0.26
				c0.33,0.04,0.44,0.2,0.45,0.54c0.11,2.51,0.16,5.03,0.18,7.54c-0.48,0.71-0.53,1.48-0.34,2.29
				C27.98,36.67,26.78,36.67,25.58,36.67z M26.21,32.21c0,0.61,0,1.22,0,1.83c0,0.28,0.08,0.5,0.39,0.5c0.3,0,0.44-0.19,0.44-0.48
				c0-1.24,0-2.47,0-3.71c0-0.28-0.11-0.48-0.43-0.48c-0.32,0-0.41,0.21-0.41,0.49C26.21,30.99,26.21,31.6,26.21,32.21z"/>
			<path class="st9" d="M20.32,34.4c0.46,0.71,0.55,1.47,0.33,2.28c-0.07,0-0.14,0-0.2,0c-2.02,0-4.04,0-6.06-0.01
				c-0.05-0.21-0.13-0.41-0.16-0.63c-0.09-0.81,0.34-1.3,1.01-1.64c0.21-0.1,0.29-0.19,0.23-0.46c-0.07-0.31-0.07-0.65,0.02-0.97
				c0.22-0.76,0.87-1.19,1.86-1.22c0.24,0.07,0.34,0.31,0.53,0.43c0.18,0.33,0.39,0.65,0.46,1.03c0.02,0.12,0.09,0.17,0.22,0.19
				c0.23,0.03,0.45,0.08,0.68,0.13C19.66,33.76,20.02,34.05,20.32,34.4z"/>
			<path class="st10" d="M29.18,36.68c-0.19-0.81-0.14-1.58,0.34-2.29c0.32-0.33,0.64-0.65,1.07-0.85c0.55-0.04,0.99-0.21,1.08-0.86
				c0.03-0.17,0.18-0.33,0.27-0.49c0.22-0.2,0.44-0.41,0.66-0.61c0.32-0.1,0.65-0.19,0.97-0.29c0.59-0.02,1.14,0.07,1.63,0.42
				c-0.03,0.02-0.07,0.05-0.1,0.06c-1.37,0.17-1.92,0.9-1.71,2.28c0.03,0.2-0.03,0.29-0.22,0.36c-0.29,0.11-0.54,0.29-0.74,0.54
				c-0.42,0.55-0.34,1.13-0.16,1.73c-0.96,0-1.92,0-2.87,0.01C29.33,36.68,29.25,36.68,29.18,36.68z"/>
			<path class="st11" d="M30.14,4.58c0.42,0.5,0.94,0.9,1.41,1.35c0.15,0.14,0.33,0.11,0.5,0.11c3.31,0,6.62,0.01,9.92,0
				c0.35,0,0.54,0.16,0.64,0.45c0.09,0.26-0.07,0.44-0.25,0.6c-0.15,0.14-0.33,0.09-0.51,0.09c-2.83,0-5.66,0-8.49,0
				c-0.12,0-0.24,0-0.36,0c0.47,0.44,0.76,1.02,1.58,1c2.69-0.06,5.39-0.02,8.08-0.02c0.34,0,0.63,0.06,0.71,0.45
				c0.08,0.43-0.17,0.69-0.67,0.69c-2.03,0-4.06,0-6.08,0c-0.44,0-0.89,0-1.33,0c0.31,0.31,0.57,0.63,0.88,0.91
				c0.13,0.11,0.29,0.07,0.43,0.07c2.22,0,4.44,0,6.66,0c0.47,0,0.78,0.24,0.77,0.59c-0.01,0.33-0.31,0.56-0.77,0.56
				c-1.73,0-3.46,0-5.19,0c-0.14,0-0.3-0.04-0.44,0.04c0.15,0.17,0.28,0.35,0.45,0.49c0.25,0.21,0.3,0.4,0.02,0.62
				c-0.05,0.04-0.08,0.11-0.12,0.16c-0.42,0.31-0.73,0.73-1.07,1.12c-0.22,0.25-0.34,0.21-0.56,0c-3.53-3.28-7.07-6.55-10.6-9.82
				c-0.56-0.52-1.09-0.52-1.66,0c-0.68,0.63-1.36,1.26-2.04,1.88c-2.87,2.65-5.74,5.3-8.59,7.97c-0.24,0.23-0.35,0.16-0.53-0.04
				c-0.35-0.38-0.66-0.8-1.07-1.11c-0.05-0.06-0.09-0.14-0.15-0.19c-0.25-0.2-0.21-0.38,0.02-0.56c0.11-0.08,0.2-0.19,0.3-0.28
				c0.07-0.07,0.24-0.09,0.18-0.23c-0.05-0.11-0.2-0.06-0.3-0.06c-1.71,0-3.43,0-5.14,0c-0.1,0-0.19,0-0.29,0
				c-0.38-0.02-0.67-0.27-0.66-0.58c0.01-0.31,0.3-0.56,0.67-0.56c2.2,0,4.41-0.01,6.61,0.01c0.37,0,0.66-0.07,0.88-0.38
				c0.16-0.22,0.45-0.3,0.63-0.61c-0.18,0-0.32,0-0.46,0c-2.27,0-4.54,0-6.82,0c-0.11,0-0.22,0.01-0.33,0
				C6.64,9.28,6.45,9.07,6.46,8.72c0.01-0.34,0.18-0.53,0.52-0.56c0.14-0.01,0.27,0,0.41,0c2.68,0,5.36-0.01,8.04,0.01
				c0.32,0,0.58-0.06,0.78-0.32c0.18-0.24,0.5-0.33,0.66-0.66c-0.17,0-0.32,0-0.46,0c-2.84,0-5.69,0-8.53,0.01
				c-0.34,0-0.55-0.14-0.66-0.43C7.13,6.48,7.3,6.3,7.49,6.13C7.62,6,7.8,6.04,7.95,6.04c3.1,0,6.2-0.03,9.31,0.02
				c0.67,0.01,1.17-0.18,1.62-0.63c0.27-0.28,0.55-0.56,0.83-0.84c0.57-0.36,0.98-0.89,1.48-1.32c0.91-0.79,1.77-1.65,2.66-2.46
				c0.6-0.55,1.56-0.56,2.16,0c1.21,1.11,2.41,2.24,3.61,3.35C29.78,4.3,29.97,4.44,30.14,4.58z"/>
			<path class="st12" d="M11.86,12.75c0.42,0.32,0.72,0.74,1.07,1.11c0.19,0.2,0.29,0.26,0.53,0.04c2.86-2.66,5.73-5.31,8.59-7.97
				c0.68-0.63,1.36-1.26,2.04-1.88c0.57-0.52,1.09-0.52,1.66,0c3.54,3.27,7.07,6.54,10.6,9.82c0.22,0.21,0.34,0.25,0.56,0
				c0.34-0.39,0.66-0.8,1.07-1.12c1.95,0,3.9,0.01,5.85,0.01c0.08,0.51,0.2,1.01,0.2,1.53c-2.89,0-5.77,0-8.66,0
				c-0.25,0-0.43-0.07-0.61-0.25c-2.83-2.81-5.66-5.62-8.49-8.42c-0.15-0.15-0.31-0.31-0.46-0.46c-0.61-0.6-1.16-0.6-1.77,0
				c-1.51,1.51-3.02,3.03-4.54,4.53c-1.48,1.46-2.97,2.92-4.45,4.38c-0.17,0.17-0.35,0.21-0.58,0.21c-2.89,0-5.77,0-8.66,0
				c0-0.52,0.12-1.02,0.2-1.53C7.96,12.76,9.91,12.76,11.86,12.75z"/>
			<path class="st7" d="M17.89,32.2c-0.2-0.12-0.3-0.36-0.53-0.43c-0.04-0.05-0.08-0.11-0.13-0.16c0.04-0.55,0.08-1.11,0.13-1.66
				c0.11-1.23,0-2.46-0.11-3.69c-0.02-0.23-0.17-0.21-0.32-0.18c-0.87-0.06-1.73-0.12-2.6-0.11c-0.58,0.01-0.74,0.16-0.75,0.75
				c0,1.31,0,2.61,0,3.92c0,1.02,0,1.02,0.99,1.09c-0.32,0.28-0.61,0.58-0.83,0.96c-1.51,0.01-3.02-0.02-4.53-0.11
				c-0.92-0.05-1.22-0.3-1.32-1.21c-0.18-1.76-0.19-3.53,0.04-5.29c0.08-0.58,0.41-0.88,1-0.93c2.73-0.2,5.46-0.2,8.19,0
				c0.64,0.05,0.96,0.35,1.04,0.98c0.22,1.82,0.21,3.63,0,5.45C18.13,31.81,18.06,32.03,17.89,32.2z M11.94,25.98
				c-0.95-0.06-1.89,0.05-2.84,0.08c-0.19,0.01-0.25,0.1-0.27,0.28c-0.17,1.48-0.18,2.97-0.06,4.46c0.06,0.79,0.08,0.79,0.87,0.84
				c0.77,0.04,1.54,0.11,2.31,0.11c0.34,0,0.55-0.23,0.56-0.58c0.01-1.55,0.01-3.1,0-4.65C12.5,26.18,12.34,25.94,11.94,25.98z"/>
			<path class="st7" d="M32.61,31.58c-0.22,0.2-0.44,0.41-0.66,0.61c-0.27-0.24-0.27-0.59-0.3-0.9c-0.17-1.75-0.18-3.5,0.05-5.25
				c0.06-0.51,0.41-0.85,0.91-0.89c2.8-0.21,5.6-0.21,8.4,0c0.49,0.04,0.84,0.37,0.9,0.85c0.24,1.88,0.24,3.77,0,5.66
				c-0.07,0.59-0.45,0.87-1.2,0.91c-1.32,0.07-2.64,0.13-3.96,0.11c-0.22,0-0.44,0-0.65,0c-0.21-0.34-0.48-0.62-0.74-0.91
				c0.66-0.02,0.9-0.17,0.9-0.62c0.01-1.55,0.01-3.09,0-4.64c0-0.33-0.17-0.57-0.56-0.53c-0.94-0.06-1.87,0.04-2.81,0.07
				c-0.17,0.01-0.28,0.05-0.3,0.25c-0.09,1.07-0.19,2.13-0.14,3.21C32.49,30.2,32.56,30.89,32.61,31.58z M38.39,31.71
				c0.79-0.02,1.57,0.01,2.36-0.09c0.18-0.02,0.25-0.07,0.27-0.26c0.21-1.69,0.2-3.38,0-5.06c-0.03-0.24-0.14-0.26-0.33-0.22
				c-0.91-0.08-1.81-0.11-2.72-0.11c-0.37,0-0.62,0.17-0.62,0.55c-0.01,1.55-0.01,3.1,0,4.65c0,0.39,0.29,0.61,0.68,0.58
				C38.15,31.73,38.27,31.72,38.39,31.71z"/>
			<path class="st13" d="M20.42,19.28c0,0.84,0.02,1.69,0,2.53c-0.02,0.76-0.43,1.17-1.18,1.24c-1.09,0.11-2.17,0.11-3.26,0
				c-0.71-0.07-1.12-0.47-1.16-1.18c-0.1-1.73-0.1-3.45,0-5.18c0.04-0.71,0.51-1.12,1.22-1.18c1.05-0.09,2.09-0.09,3.14,0
				c0.75,0.06,1.22,0.48,1.24,1.24C20.44,17.59,20.42,18.43,20.42,19.28z M18.8,16.51c-0.82-0.16-1.64-0.05-2.47-0.02
				c-0.49,0.02-0.55,0.08-0.55,0.66c0,0.46,0.15,0.65,0.57,0.65c0.65,0.01,1.3,0,1.95,0c0.18,0.1,0.37,0.06,0.55,0.05
				c0.49-0.03,0.63-0.3,0.59-0.99C19.42,16.39,19.09,16.5,18.8,16.51z M17.82,18.78c-0.51,0-1.03,0-1.54,0c-0.3,0-0.5,0.14-0.5,0.45
				c0,0.78,0.02,1.57,0.03,2.35c0.01,0.35,0.15,0.56,0.54,0.48c0.96,0.13,1.91,0.1,2.87-0.01c0.17-0.02,0.23-0.12,0.23-0.28
				c0.03-0.81,0.06-1.62,0.07-2.44c0-0.31-0.14-0.57-0.49-0.6C18.62,18.71,18.21,18.67,17.82,18.78z"/>
			<path class="st13" d="M29.43,19.28c0-0.84-0.02-1.69,0-2.53c0.02-0.76,0.49-1.18,1.24-1.24c1.05-0.09,2.09-0.08,3.14,0
				c0.72,0.06,1.18,0.46,1.22,1.17c0.1,1.74,0.11,3.48,0,5.22c-0.04,0.69-0.46,1.07-1.15,1.14c-1.1,0.11-2.2,0.11-3.3,0
				c-0.7-0.07-1.12-0.49-1.14-1.2C29.41,20.99,29.43,20.14,29.43,19.28z M33.42,16.51c-0.82-0.16-1.65-0.05-2.47-0.02
				c-0.51,0.02-0.54,0.06-0.55,0.62c0,0.5,0.14,0.69,0.57,0.7c0.65,0.01,1.3,0,1.95,0c0.18,0.1,0.37,0.06,0.55,0.05
				c0.49-0.03,0.63-0.31,0.59-0.98C34.04,16.39,33.71,16.5,33.42,16.51z M32.44,18.78c-0.49,0-0.98-0.01-1.47,0
				c-0.48,0-0.58,0.1-0.58,0.57c0,0.72,0.01,1.44,0.02,2.16c0.01,0.53,0.02,0.54,0.55,0.56c0.9,0.13,1.81,0.08,2.72,0.01
				c0.28-0.02,0.38-0.13,0.39-0.4c0.02-0.76,0-1.52,0.06-2.28c0.03-0.33-0.11-0.61-0.48-0.64C33.24,18.71,32.84,18.66,32.44,18.78z"
				/>
			<path class="st7" d="M13.17,19.3c-0.01,0.86-0.01,1.71-0.07,2.57c-0.06,0.71-0.44,1.11-1.15,1.18c-1.1,0.11-2.2,0.11-3.3,0
				c-0.68-0.07-1.09-0.49-1.13-1.16c-0.11-1.74-0.11-3.48,0-5.22c0.04-0.64,0.47-1.09,1.11-1.15c1.11-0.1,2.23-0.1,3.34,0
				c0.66,0.06,1.07,0.5,1.13,1.17C13.17,17.56,13.16,18.43,13.17,19.3z M11.53,16.51c-0.78-0.11-1.56-0.09-2.34-0.02
				c-0.69,0.06-0.69,0.03-0.69,0.7c0,0.49,0.13,0.62,0.63,0.62c0.64,0,1.27,0,1.91,0c0.17,0,0.35,0.01,0.52,0.01
				c0.42-0.01,0.62-0.22,0.6-0.63C12.12,16.5,12.11,16.48,11.53,16.51z M10.47,18.79c-0.46,0-0.92-0.01-1.38-0.01
				c-0.5,0-0.66,0.15-0.65,0.65c0.01,0.69,0.05,1.38,0.07,2.07c0.02,0.54,0.01,0.54,0.56,0.58c0.93,0.11,1.87,0.09,2.8-0.01
				c0.2-0.02,0.22-0.14,0.24-0.31c0.09-0.81,0.07-1.63,0.08-2.44c0-0.33-0.16-0.54-0.47-0.56C11.3,18.7,10.88,18.66,10.47,18.79z"/>
			<path class="st7" d="M27.79,19.3c0.01,0.87-0.01,1.74-0.08,2.61c-0.05,0.63-0.45,1.07-1.07,1.13c-1.14,0.12-2.28,0.12-3.42,0
				c-0.61-0.06-1.04-0.48-1.08-1.08c-0.12-1.78-0.12-3.56,0-5.34c0.04-0.61,0.49-1.04,1.11-1.1c1.11-0.1,2.23-0.1,3.34,0
				c0.66,0.06,1.07,0.51,1.12,1.18C27.78,17.56,27.79,18.43,27.79,19.3z M25.65,17.82c0.17,0,0.35,0.01,0.52,0.01
				c0.41-0.01,0.61-0.21,0.59-0.59c-0.02-0.73-0.04-0.75-0.62-0.73c-0.78-0.11-1.56-0.09-2.34-0.02c-0.69,0.06-0.69,0.03-0.69,0.7
				c0,0.49,0.13,0.62,0.63,0.62C24.38,17.82,25.02,17.81,25.65,17.82z M25.09,18.79c-0.46,0-0.92-0.01-1.38-0.01
				c-0.5,0-0.65,0.15-0.66,0.65c-0.01,0.69,0.03,1.38,0.07,2.07c0.03,0.54,0.01,0.54,0.57,0.58c0.93,0.1,1.86,0.09,2.8-0.02
				c0.2-0.02,0.23-0.14,0.24-0.31c0.09-0.81,0.07-1.63,0.08-2.44c0-0.33-0.17-0.54-0.47-0.57C25.92,18.7,25.5,18.66,25.09,18.79z"/>
			<path class="st7" d="M36.68,19.28c0.01-0.86,0-1.71,0.07-2.57c0.06-0.72,0.48-1.14,1.19-1.2c1.07-0.09,2.14-0.09,3.22,0
				c0.71,0.06,1.14,0.5,1.18,1.21c0.1,1.71,0.11,3.42,0,5.14c-0.04,0.69-0.45,1.12-1.15,1.19c-1.11,0.11-2.23,0.11-3.34,0
				c-0.63-0.06-1.03-0.48-1.09-1.11C36.67,21.05,36.69,20.17,36.68,19.28z M40.77,16.51c-0.89-0.15-1.78-0.05-2.67-0.01
				c-0.26,0.01-0.37,0.11-0.36,0.37c0.01,0.11,0,0.22,0,0.33c0,0.5,0.11,0.62,0.62,0.62c0.64,0.01,1.27,0,1.91,0.01
				c0.2,0.08,0.4,0.05,0.59,0.02c0.48-0.08,0.55-0.27,0.48-1.04C41.31,16.37,41,16.53,40.77,16.51z M39.71,18.78
				c-0.46,0-0.92-0.01-1.38-0.01c-0.51,0-0.65,0.14-0.66,0.65c-0.01,0.69,0.05,1.38,0.06,2.07c0.01,0.44,0.15,0.62,0.58,0.58
				c0.93,0.1,1.86,0.09,2.79-0.02c0.17-0.02,0.23-0.1,0.24-0.26c0.07-0.84,0.09-1.68,0.08-2.52c0-0.31-0.19-0.5-0.46-0.53
				C40.54,18.7,40.12,18.66,39.71,18.78z"/>
			<path class="st14" d="M28.69,10.3c-0.06,2.08-1.95,3.75-4.06,3.56c-2.22-0.2-3.56-1.98-3.5-3.86c0.08-2.48,2.13-3.9,4.21-3.72
				C27.3,6.45,28.85,8.3,28.69,10.3z M23.86,12.42c1.08,0.58,2.7,0.16,3.38-1.14c0.65-1.25,0.2-2.81-1.01-3.45
				c-1.31-0.75-2.94-0.27-3.62,1.06C21.93,10.23,22.5,11.82,23.86,12.42z"/>
			<path class="st9" d="M35.37,31.77c0.26,0.29,0.53,0.58,0.74,0.91c0.02,0.08,0.05,0.15,0.06,0.23c0.05,0.34,0.22,0.48,0.59,0.56
				c1.46,0.31,2.15,1.58,1.79,3.2c-2.09,0-4.18,0-6.27,0c-0.17-0.6-0.26-1.18,0.16-1.73c0.2-0.26,0.45-0.43,0.74-0.54
				c0.19-0.07,0.25-0.17,0.22-0.36c-0.21-1.37,0.34-2.1,1.71-2.28c0.04,0,0.07-0.04,0.1-0.06C35.27,31.73,35.32,31.75,35.37,31.77z"
				/>
			<path class="st10" d="M13.73,32.68c0.21-0.37,0.51-0.68,0.83-0.96c0.05-0.04,0.11-0.07,0.16-0.11c0.83-0.44,1.67-0.4,2.51-0.01
				c0.04,0.05,0.08,0.11,0.13,0.16c-0.99,0.03-1.64,0.46-1.86,1.22c-0.09,0.32-0.09,0.66-0.02,0.97c0.06,0.27-0.02,0.36-0.23,0.46
				c-0.67,0.33-1.11,0.83-1.01,1.64c0.02,0.21,0.1,0.42,0.16,0.63c-1.03,0-2.07,0-3.1,0c-0.43-1.68,0.37-2.96,2.07-3.27
				c0.12-0.02,0.19-0.05,0.22-0.19C13.61,33.04,13.68,32.86,13.73,32.68z"/>
			<path class="st11" d="M23.64,32.22c0,0.6,0,1.19,0,1.79c0,0.29-0.06,0.54-0.41,0.53c-0.32-0.01-0.43-0.23-0.43-0.53
				c0-1.21,0-2.42,0-3.62c0-0.29,0.1-0.52,0.44-0.51c0.32,0.01,0.39,0.23,0.39,0.51C23.64,31,23.64,31.61,23.64,32.22z"/>
			<path class="st11" d="M26.21,32.21c0-0.61,0-1.22,0-1.83c0-0.28,0.09-0.49,0.41-0.49c0.32,0,0.43,0.2,0.43,0.48
				c0,1.24,0,2.47,0,3.71c0,0.28-0.14,0.48-0.44,0.48c-0.32,0-0.4-0.23-0.39-0.5C26.21,33.43,26.21,32.82,26.21,32.21z"/>
			<path class="st8" d="M32.61,31.58c-0.05-0.69-0.12-1.38-0.15-2.07c-0.05-1.07,0.05-2.14,0.14-3.21c0.02-0.2,0.13-0.24,0.3-0.25
				c0.93-0.03,1.87-0.13,2.81-0.07c-0.02,0.11-0.01,0.22-0.05,0.32c-0.43,1.01-0.88,2.01-1.3,3.03c-0.27,0.65-0.62,1.27-0.78,1.96
				C33.26,31.38,32.93,31.48,32.61,31.58z"/>
			<path class="st15" d="M33.58,31.29c0.16-0.69,0.51-1.31,0.78-1.96c0.42-1.02,0.87-2.02,1.3-3.03c0.04-0.1,0.03-0.21,0.05-0.32
				c0.4-0.05,0.56,0.19,0.56,0.53c0.01,1.55,0.01,3.09,0,4.64c0,0.45-0.24,0.6-0.9,0.62c-0.05-0.02-0.1-0.04-0.15-0.06
				C34.72,31.36,34.17,31.27,33.58,31.29z"/>
			<path class="st8" d="M14.72,31.62c-0.05,0.04-0.11,0.07-0.16,0.11c-0.99-0.08-0.99-0.08-0.99-1.09c0-1.31,0-2.61,0-3.92
				c0-0.59,0.16-0.74,0.75-0.75c0.87-0.01,1.74,0.05,2.6,0.11c-0.02,0.08-0.02,0.16-0.05,0.23c-0.66,1.55-1.34,3.1-1.99,4.65
				C14.8,31.16,14.6,31.35,14.72,31.62z"/>
			<path class="st8" d="M9.63,31.63c-0.79-0.05-0.81-0.05-0.87-0.84c-0.12-1.49-0.11-2.97,0.06-4.46c0.02-0.18,0.08-0.27,0.27-0.28
				c0.95-0.03,1.89-0.14,2.84-0.08c-0.03,0.14-0.05,0.3-0.11,0.43c-0.44,1.03-0.9,2.06-1.33,3.09C10.21,30.21,9.84,30.89,9.63,31.63
				z"/>
			<path class="st15" d="M9.63,31.63c0.21-0.74,0.57-1.42,0.87-2.13c0.43-1.04,0.89-2.06,1.33-3.09c0.06-0.13,0.07-0.29,0.11-0.43
				c0.4-0.04,0.56,0.2,0.56,0.53c0.01,1.55,0.01,3.1,0,4.65c0,0.35-0.22,0.59-0.56,0.58C11.17,31.74,10.4,31.68,9.63,31.63z"/>
			<path class="st15" d="M14.72,31.62c-0.13-0.26,0.08-0.45,0.16-0.65c0.65-1.56,1.32-3.1,1.99-4.65c0.03-0.07,0.04-0.16,0.05-0.23
				c0.15-0.02,0.3-0.04,0.32,0.18c0.11,1.23,0.23,2.45,0.11,3.69c-0.05,0.55-0.09,1.11-0.13,1.66
				C16.39,31.21,15.56,31.18,14.72,31.62z"/>
			<path class="st8" d="M38.39,31.71c-0.12,0.01-0.24,0.03-0.36,0.03c-0.39,0.03-0.68-0.19-0.68-0.58c-0.01-1.55-0.01-3.1,0-4.65
				c0-0.38,0.24-0.54,0.62-0.55c0.91-0.01,1.82,0.03,2.72,0.11c-0.01,0.07-0.01,0.14-0.04,0.2c-0.49,1.16-1,2.31-1.49,3.48
				C38.9,30.4,38.58,31.02,38.39,31.71z"/>
			<path class="st15" d="M38.39,31.71c0.18-0.68,0.51-1.31,0.78-1.96c0.49-1.16,0.99-2.32,1.49-3.48c0.03-0.06,0.02-0.13,0.04-0.2
				c0.18-0.04,0.3-0.02,0.33,0.22c0.2,1.69,0.21,3.38,0,5.06c-0.02,0.19-0.1,0.24-0.27,0.26C39.97,31.72,39.18,31.69,38.39,31.71z"
				/>
			<path class="st15" d="M17.82,18.78c0.4-0.11,0.81-0.07,1.21-0.03c0.34,0.03,0.49,0.28,0.49,0.6c-0.01,0.81-0.04,1.62-0.07,2.44
				c0,0.15-0.06,0.26-0.23,0.28c-0.96,0.11-1.91,0.14-2.87,0.01c0.15-0.32,0.29-0.64,0.44-0.96C17.12,20.33,17.47,19.55,17.82,18.78
				z"/>
			<path class="st8" d="M17.82,18.78c-0.35,0.78-0.69,1.55-1.04,2.33c-0.14,0.32-0.29,0.64-0.44,0.96
				c-0.39,0.07-0.54-0.13-0.54-0.48c-0.01-0.78-0.03-1.57-0.03-2.35c0-0.32,0.2-0.45,0.5-0.45C16.79,18.77,17.3,18.78,17.82,18.78z"
				/>
			<path class="st8" d="M18.3,17.81c-0.65,0-1.3,0.01-1.95,0c-0.42,0-0.57-0.19-0.57-0.65c0-0.58,0.06-0.64,0.55-0.66
				c0.82-0.03,1.64-0.15,2.47,0.02C18.77,16.99,18.42,17.36,18.3,17.81z"/>
			<path class="st15" d="M18.3,17.81c0.11-0.45,0.46-0.82,0.5-1.3c0.29-0.01,0.62-0.12,0.65,0.36c0.04,0.68-0.1,0.95-0.59,0.99
				C18.68,17.87,18.48,17.91,18.3,17.81z"/>
			<path class="st15" d="M32.44,18.78c0.4-0.12,0.81-0.07,1.21-0.03c0.37,0.03,0.51,0.32,0.48,0.64c-0.06,0.76-0.04,1.52-0.06,2.28
				c-0.01,0.27-0.11,0.38-0.39,0.4c-0.91,0.08-1.81,0.12-2.72-0.01c0.15-0.32,0.29-0.64,0.44-0.96
				C31.75,20.33,32.09,19.55,32.44,18.78z"/>
			<path class="st8" d="M32.44,18.78c-0.35,0.78-0.69,1.55-1.04,2.33c-0.14,0.32-0.29,0.64-0.44,0.96
				c-0.54-0.02-0.55-0.03-0.55-0.56c-0.01-0.72-0.02-1.44-0.02-2.16c0-0.47,0.1-0.57,0.58-0.57C31.46,18.77,31.95,18.78,32.44,18.78
				z"/>
			<path class="st8" d="M32.93,17.81c-0.65,0-1.3,0.01-1.95,0c-0.43,0-0.57-0.19-0.57-0.7c0.01-0.56,0.04-0.6,0.55-0.62
				c0.82-0.03,1.65-0.15,2.47,0.02C33.39,16.99,33.04,17.36,32.93,17.81z"/>
			<path class="st15" d="M32.93,17.81c0.11-0.45,0.46-0.82,0.5-1.3c0.29-0.01,0.61-0.12,0.64,0.36c0.04,0.67-0.1,0.95-0.59,0.98
				C33.3,17.87,33.1,17.91,32.93,17.81z"/>
			<path class="st15" d="M10.47,18.79c0.41-0.13,0.84-0.08,1.25-0.04c0.3,0.03,0.47,0.23,0.47,0.56c-0.01,0.81,0.01,1.63-0.08,2.44
				c-0.02,0.16-0.04,0.29-0.24,0.31c-0.93,0.1-1.87,0.12-2.8,0.01c0.23-0.72,0.61-1.36,0.9-2.05
				C10.14,19.61,10.39,19.24,10.47,18.79z"/>
			<path class="st8" d="M10.47,18.79c-0.08,0.45-0.33,0.83-0.5,1.24c-0.29,0.69-0.67,1.33-0.9,2.05c-0.55-0.04-0.55-0.04-0.56-0.58
				c-0.02-0.69-0.06-1.38-0.07-2.07c-0.01-0.5,0.15-0.65,0.65-0.65C9.55,18.77,10.01,18.78,10.47,18.79z"/>
			<path class="st8" d="M11.03,17.82c-0.64,0-1.27,0-1.91,0c-0.5,0-0.63-0.14-0.63-0.62c0-0.67,0-0.65,0.69-0.7
				c0.78-0.06,1.56-0.08,2.34,0.02c0.01,0.17-0.09,0.3-0.15,0.45C11.26,17.25,11.04,17.49,11.03,17.82z"/>
			<path class="st15" d="M11.03,17.82c0.01-0.33,0.23-0.57,0.34-0.85c0.06-0.15,0.16-0.28,0.15-0.45c0.58-0.02,0.59-0.01,0.63,0.69
				c0.02,0.41-0.18,0.62-0.6,0.63C11.38,17.83,11.21,17.82,11.03,17.82z"/>
			<path class="st15" d="M25.09,18.79c0.41-0.13,0.84-0.08,1.25-0.04c0.3,0.03,0.47,0.24,0.47,0.57c-0.01,0.81,0.01,1.63-0.08,2.44
				c-0.02,0.17-0.05,0.28-0.24,0.31c-0.93,0.11-1.86,0.12-2.8,0.02c0.21-0.66,0.55-1.25,0.82-1.88
				C24.7,19.72,24.99,19.29,25.09,18.79z"/>
			<path class="st8" d="M25.09,18.79c-0.1,0.51-0.39,0.94-0.59,1.4c-0.27,0.63-0.61,1.23-0.82,1.88c-0.55-0.04-0.54-0.04-0.57-0.58
				c-0.04-0.69-0.08-1.38-0.07-2.07c0.01-0.5,0.16-0.65,0.66-0.65C24.17,18.77,24.63,18.78,25.09,18.79z"/>
			<path class="st8" d="M25.65,17.82c-0.64,0-1.27,0-1.91,0c-0.5,0-0.63-0.13-0.63-0.62c0-0.68,0-0.65,0.69-0.7
				c0.78-0.06,1.56-0.08,2.34,0.02C26.08,16.98,25.7,17.34,25.65,17.82z"/>
			<path class="st15" d="M25.65,17.82c0.05-0.48,0.43-0.84,0.5-1.31c0.58-0.02,0.6-0.01,0.62,0.73c0.01,0.38-0.18,0.58-0.59,0.59
				C26,17.83,25.83,17.82,25.65,17.82z"/>
			<path class="st15" d="M39.71,18.78c0.41-0.13,0.84-0.08,1.25-0.04c0.28,0.03,0.46,0.22,0.46,0.53c0.01,0.84-0.01,1.68-0.08,2.52
				c-0.01,0.16-0.07,0.25-0.24,0.26c-0.93,0.11-1.86,0.12-2.79,0.02c0.03-0.12,0.05-0.24,0.1-0.35c0.22-0.49,0.48-0.96,0.68-1.47
				C39.28,19.76,39.61,19.32,39.71,18.78z"/>
			<path class="st8" d="M39.71,18.78c-0.1,0.54-0.43,0.98-0.63,1.48c-0.19,0.5-0.45,0.98-0.68,1.47c-0.05,0.11-0.07,0.23-0.1,0.35
				c-0.43,0.04-0.57-0.14-0.58-0.58c-0.01-0.69-0.07-1.38-0.06-2.07c0-0.51,0.14-0.65,0.66-0.65
				C38.79,18.77,39.25,18.78,39.71,18.78z"/>
			<path class="st8" d="M40.27,17.82c-0.64,0-1.27,0-1.91-0.01c-0.51,0-0.63-0.12-0.62-0.62c0-0.11,0.01-0.22,0-0.33
				c-0.02-0.26,0.1-0.36,0.36-0.37c0.89-0.04,1.78-0.13,2.67,0.01C40.7,16.98,40.33,17.34,40.27,17.82z"/>
			<path class="st15" d="M40.27,17.82c0.05-0.48,0.43-0.84,0.5-1.31c0.23,0.02,0.53-0.14,0.57,0.29c0.07,0.77,0,0.96-0.48,1.04
				C40.67,17.87,40.47,17.9,40.27,17.82z"/>
			<path class="st8" d="M23.86,12.42c-1.36-0.61-1.92-2.2-1.25-3.52c0.68-1.34,2.3-1.81,3.62-1.06c-0.42,0.51-0.61,1.15-0.93,1.72
				c-0.01-0.32-0.01-0.65-0.03-0.97c-0.01-0.17-0.1-0.28-0.26-0.32c-0.14-0.04-0.27,0.01-0.36,0.13c-0.13,0.17-0.11,1.77,0.03,1.94
				c0.04,0.05,0.11,0.08,0.16,0.12C24.51,11.11,24.19,11.77,23.86,12.42z"/>
			<path class="st15" d="M23.86,12.42c0.33-0.66,0.66-1.32,0.99-1.98c0.41,0,0.82,0,1.22-0.01c0.23-0.01,0.4-0.14,0.39-0.38
				c-0.01-0.22-0.16-0.33-0.38-0.34c-0.18,0-0.35,0.01-0.53,0c-0.1-0.01-0.27,0.06-0.25-0.16c0.32-0.56,0.51-1.2,0.93-1.72
				c1.21,0.64,1.66,2.2,1.01,3.45C26.56,12.59,24.93,13,23.86,12.42z"/>
			<path class="st4" d="M25.29,9.55c-0.03,0.22,0.14,0.15,0.25,0.16c0.18,0.01,0.35,0,0.53,0c0.22,0,0.38,0.12,0.38,0.34
				c0.01,0.24-0.15,0.37-0.39,0.38c-0.41,0.01-0.82,0.01-1.22,0.01c-0.05-0.04-0.12-0.07-0.16-0.12c-0.14-0.16-0.16-1.77-0.03-1.94
				c0.09-0.12,0.21-0.17,0.36-0.13c0.16,0.05,0.25,0.16,0.26,0.32C25.28,8.91,25.28,9.23,25.29,9.55z"/>
		</g>
	</g>
</g>
</svg>
